<svg width="32" height="32" viewBox="0 0 32 32" xmlns="http://www.w3.org/2000/svg">
  <defs>
    <linearGradient id="g" x1="0" y1="0" x2="32" y2="32" gradientUnits="userSpaceOnUse">
      <stop offset="0" stop-color="#6366f1"/>
      <stop offset="1" stop-color="#a855f7"/>
    </linearGradient>
  </defs>
  <rect width="32" height="32" rx="8" fill="url(#g)"/>
  <path d="M20.5 10.5c-1.1-1.2-2.7-1.9-4.6-1.9-2.9 0-5 1.6-5 4 0 2.2 1.7 3.3 4.6 3.9l1.3 0.3c1.6 0.3 2.4 0.7 2.4 1.5 0 0.9-1 1.5-2.6 1.5-1.7 0-3-0.6-4.1-1.7"
        stroke="#ffffff" stroke-width="2.2" stroke-linecap="round" stroke-linejoin="round" fill="none"/>
  <g stroke="#ffffff" stroke-width="1.4" stroke-linecap="round" fill="none" opacity="0.9">
    <path d="M22.5 7.5 Q24.5 9 24 11.5"/>
    <path d="M24.5 6 Q27.5 8.5 26.5 13"/>
  </g>
  <circle cx="22" cy="6" r="1.1" fill="#ffffff"/>
</svg>
